HIERARCHY
ROOT joint_Root
{
	OFFSET 0.0 0.0 0.0
	CHANNELS 6 Xposition Yposition Zposition Zrotation Xrotation Yrotation 
	JOINT Hips
	{
		OFFSET 4.5925 91.4895 -427.239
		CHANNELS 6 Xposition Yposition Zposition Zrotation Xrotation Yrotation 
		JOINT Spine
		{
			OFFSET 15.7357 0.0 0.0
			CHANNELS 6 Xposition Yposition Zposition Zrotation Xrotation Yrotation 
			JOINT Chest
			{
				OFFSET 8.98455 -0.406207 0.0
				CHANNELS 6 Xposition Yposition Zposition Zrotation Xrotation Yrotation 
				JOINT Neck
				{
					OFFSET 16.3773 0.0 0.0
					CHANNELS 6 Xposition Yposition Zposition Zrotation Xrotation Yrotation 
					JOINT Head
					{
						OFFSET 6.45672 0.0 0.0
						CHANNELS 6 Xposition Yposition Zposition Zrotation Xrotation Yrotation 
						End Site
						{
							OFFSET 0.0 0.0 0.0
						}
					}
				}
				JOINT Shoulder_L
				{
					OFFSET 12.9942 -0.242716 4.98039
					CHANNELS 6 Xposition Yposition Zposition Zrotation Xrotation Yrotation 
					JOINT UpperArm_L
					{
						OFFSET 5.34809 0.0 0.0
						CHANNELS 6 Xposition Yposition Zposition Zrotation Xrotation Yrotation 
						JOINT LowerArm_L
						{
							OFFSET 24.3286 1.87007e-05 0.0
							CHANNELS 6 Xposition Yposition Zposition Zrotation Xrotation Yrotation 
							JOINT Hand_L
							{
								OFFSET 22.2916 0.0 0.0
								CHANNELS 6 Xposition Yposition Zposition Zrotation Xrotation Yrotation 
								End Site
								{
									OFFSET 0.0 0.0 0.0
								}
							}
						}
					}
				}
				JOINT Shoulder_R
				{
					OFFSET 12.9945 -0.242716 -4.98039
					CHANNELS 6 Xposition Yposition Zposition Zrotation Xrotation Yrotation 
					JOINT UpperArm_R
					{
						OFFSET -5.34813 0.0 0.0
						CHANNELS 6 Xposition Yposition Zposition Zrotation Xrotation Yrotation 
						JOINT LowerArm_R
						{
							OFFSET -24.3289 0.000322201 0.0
							CHANNELS 6 Xposition Yposition Zposition Zrotation Xrotation Yrotation 
							JOINT Hand_R
							{
								OFFSET -22.2915 -0.000108084 0.0
								CHANNELS 6 Xposition Yposition Zposition Zrotation Xrotation Yrotation 
								End Site
								{
									OFFSET 0.0 0.0 0.0
								}
							}
						}
					}
				}
			}
		}
		JOINT UpperLeg_L
		{
			OFFSET -2.19248 -6.46944 0.0
			CHANNELS 6 Xposition Yposition Zposition Zrotation Xrotation Yrotation 
			JOINT LowerLeg_L
			{
				OFFSET 39.0811 0.0 -1.23785e-05
				CHANNELS 6 Xposition Yposition Zposition Zrotation Xrotation Yrotation 
				JOINT Foot_L
				{
					OFFSET 40.9854 0.0 -1.26872e-05
					CHANNELS 6 Xposition Yposition Zposition Zrotation Xrotation Yrotation 
					JOINT Toes_L
					{
						OFFSET 11.7543 0.0 0.0
						CHANNELS 6 Xposition Yposition Zposition Zrotation Xrotation Yrotation 
						End Site
						{
							OFFSET 0.0 0.0 0.0
						}
					}
				}
			}
		}
		JOINT UpperLeg_R
		{
			OFFSET -2.19251 6.46944 0.0
			CHANNELS 6 Xposition Yposition Zposition Zrotation Xrotation Yrotation 
			JOINT LowerLeg_R
			{
				OFFSET -39.0811 -0.00228153 -0.0401928
				CHANNELS 6 Xposition Yposition Zposition Zrotation Xrotation Yrotation 
				JOINT Foot_R
				{
					OFFSET -40.9854 0.0 0.0
					CHANNELS 6 Xposition Yposition Zposition Zrotation Xrotation Yrotation 
					JOINT Toes_R
					{
						OFFSET -11.7543 0.0 0.0
						CHANNELS 6 Xposition Yposition Zposition Zrotation Xrotation Yrotation 
						End Site
						{
							OFFSET 0.0 0.0 0.0
						}
					}
				}
			}
		}
	}
}
MOTION
Frames:	6
Frame Time:	0.0333333
0.000000 0.000000 0.000000 0.000000 0.000000 -0.000000 -141.494000 85.867600 185.852000 55.598700 85.544900 27.577900 15.735700 0.000005 -0.000001 53.900100 82.190200 -51.265200 8.984550 -0.406207 -0.000000 5.126340 -9.245180 5.687700 16.377300 -0.000001 -0.000001 -1.304810 3.509260 2.159250 6.456720 -0.000001 -0.000000 -5.288350 11.171900 2.862050 12.994200 -0.242716 4.980390 -89.390700 -2.440800 -76.001000 5.348090 -0.000007 -0.000001 -46.367100 35.477900 -52.015100 24.328600 0.000019 0.000005 14.549400 -4.898580 -108.217000 22.291600 -0.000001 0.000005 -1.115020 5.435200 -4.098930 12.994500 -0.242716 -4.980390 89.242000 3.237730 -76.807700 -5.348130 -0.000001 -0.000004 -57.932700 24.298400 14.828600 -24.328900 0.000322 -0.000009 -11.711300 -3.768360 -72.411700 -22.291500 -0.000108 -0.000004 19.430400 5.659530 -15.851600 -2.192480 -6.469440 -0.000000 -168.314000 -11.353400 7.800500 39.081100 -0.000007 -0.000012 -0.081259 0.138220 30.451300 40.985400 -0.000006 -0.000013 -2.268380 7.934900 -66.897600 11.754300 -0.000000 0.000003 -0.170427 -0.593574 -41.817600 -2.192510 6.469440 -0.000001 -170.411000 16.429900 133.967000 -39.081100 -0.002282 -0.040193 0.008042 -0.007147 33.594200 -40.985400 0.000008 0.000006 0.237476 6.216410 -57.756900 -11.754300 -0.000006 -0.000006 -0.023313 -0.184993 -24.138000
0.000000 0.000000 0.000000 0.000000 0.000000 -0.000000 -135.620000 84.298700 187.613000 32.984400 86.540600 49.917900 15.735700 0.000005 -0.000001 52.265500 82.714900 -49.081700 8.984550 -0.406207 -0.000000 4.057340 -9.007360 6.690730 16.377300 -0.000001 -0.000001 -1.855050 2.522740 2.071410 6.456720 -0.000001 -0.000000 -4.343080 9.135150 2.754860 12.994200 -0.242716 4.980390 -90.060200 0.240368 -76.002700 5.348090 -0.000007 -0.000001 -51.088600 39.177600 -41.055100 24.328600 0.000019 0.000005 14.863100 -1.553470 -95.823700 22.291600 -0.000001 0.000005 1.499580 5.488450 -6.067310 12.994500 -0.242716 -4.980390 88.051300 8.232550 -76.635800 -5.348130 -0.000001 -0.000004 -57.946700 24.184300 10.700300 -24.328900 0.000322 -0.000009 -14.361900 -5.596280 -69.148700 -22.291500 -0.000108 -0.000004 21.020600 5.663020 -16.401600 -2.192480 -6.469440 -0.000000 -165.880000 -9.873810 8.778470 39.081100 -0.000007 -0.000012 -0.048847 0.073298 33.680500 40.985400 -0.000006 -0.000013 -2.865340 8.506460 -62.766500 11.754300 -0.000000 0.000003 -0.307696 -0.799650 -51.869800 -2.192510 6.469440 -0.000001 -169.218000 17.501100 131.215000 -39.081100 -0.002282 -0.040193 0.065528 -0.067960 42.491700 -40.985400 0.000008 0.000006 6.296850 3.213180 -53.705400 -11.754300 -0.000006 -0.000006 -0.014869 -0.136990 -22.162100
0.000000 0.000000 0.000000 0.000000 0.000000 -0.000000 -129.216000 83.224500 189.442000 32.093700 85.935400 53.382300 15.735700 0.000005 -0.000001 58.433100 82.956200 -54.592700 8.984550 -0.406207 -0.000000 4.530840 -7.470680 7.976990 16.377300 -0.000001 -0.000001 -0.747976 1.652820 1.952870 6.456720 -0.000001 -0.000000 -5.191320 7.543620 -0.524698 12.994200 -0.242716 4.980390 -90.152700 0.565670 -74.889800 5.348090 -0.000007 -0.000001 -61.885300 40.237600 -27.426300 24.328600 0.000019 0.000005 14.568900 3.674680 -76.178100 22.291600 -0.000001 0.000005 2.908160 5.503220 -6.665870 12.994500 -0.242716 -4.980390 87.637600 9.566060 -76.058600 -5.348130 -0.000001 -0.000004 -61.326300 27.041200 5.619380 -24.328900 0.000322 -0.000009 -13.313400 -4.523000 -71.572900 -22.291500 -0.000108 -0.000004 19.935100 5.660390 -16.104700 -2.192480 -6.469440 -0.000000 -164.768000 -7.333610 10.305400 39.081100 -0.000007 -0.000012 0.061556 -0.073801 39.830000 40.985400 -0.000006 -0.000013 -1.097860 5.886970 -53.610100 11.754300 -0.000000 0.000003 -0.429013 -0.932748 -59.177000 -2.192510 6.469440 -0.000001 -171.432000 13.304400 134.016000 -39.081100 -0.002282 -0.040193 -0.078675 0.063068 52.406000 -40.985400 0.000008 0.000006 6.027560 -1.665980 -62.286700 -11.754300 -0.000006 -0.000006 -0.003373 -0.044751 -18.393200
0.000000 0.000000 0.000000 0.000000 0.000000 -0.000000 -123.358000 83.201800 191.113000 33.077900 85.314100 55.910700 15.735700 0.000005 -0.000001 67.395700 82.595800 -63.261200 8.984550 -0.406207 -0.000000 6.149640 -5.734430 8.574050 16.377300 -0.000001 -0.000001 -0.791172 0.571169 2.429580 6.456720 -0.000001 -0.000000 -5.046600 6.028660 -2.034830 12.994200 -0.242716 4.980390 -90.258900 0.966134 -74.994200 5.348090 -0.000007 -0.000001 -68.784500 35.439800 -14.805200 24.328600 0.000019 0.000005 24.286700 12.355000 -64.650900 22.291600 -0.000001 0.000005 -0.448453 5.510890 -7.011430 12.994500 -0.242716 -4.980390 87.675100 9.927280 -76.748200 -5.348130 -0.000001 -0.000004 -64.195700 33.343400 -1.774100 -24.328900 0.000322 -0.000009 -11.541400 -2.572750 -77.617600 -22.291500 -0.000108 -0.000004 19.200100 5.660600 -16.126300 -2.192480 -6.469440 -0.000000 -165.379000 -3.323320 8.076490 39.081100 -0.000007 -0.000012 0.156973 -0.132475 49.837100 40.985400 -0.000006 -0.000013 -2.349520 -0.715199 -39.149700 11.754300 -0.000000 0.000003 -0.170914 -0.594465 -41.858700 -2.192510 6.469440 -0.000001 -172.301000 11.206800 140.725000 -39.081100 -0.002282 -0.040193 -0.257935 0.175767 56.058400 -40.985400 0.000008 0.000006 4.454180 -4.370210 -68.700600 -11.754300 -0.000006 -0.000006 -0.002005 -0.028776 -17.743200
0.000000 0.000000 0.000000 0.000000 0.000000 -0.000000 -118.854000 83.979600 192.406000 36.631500 85.325200 53.730900 15.735700 0.000005 -0.000001 74.748700 82.552000 -70.881800 8.984550 -0.406207 -0.000000 6.762640 -3.939470 7.960930 16.377300 -0.000001 -0.000001 -1.436780 -0.526800 3.337100 6.456720 -0.000001 -0.000000 -5.100100 4.035650 -1.975760 12.994200 -0.242716 4.980390 -90.417400 1.525060 -74.689100 5.348090 -0.000007 -0.000001 -64.698200 35.926200 -5.468780 24.328600 0.000019 0.000005 25.891700 11.544000 -67.615300 22.291600 -0.000001 0.000005 -4.235580 5.528520 -7.724240 12.994500 -0.242716 -4.980390 88.181300 8.888780 -78.390000 -5.348130 -0.000001 -0.000004 -64.099900 40.618200 -12.114100 -24.328900 0.000322 -0.000009 -7.676380 -0.512395 -86.237200 -22.291500 -0.000108 -0.000004 19.559400 5.654920 -15.496300 -2.192480 -6.469440 -0.000000 -168.015000 0.486134 0.697922 39.081100 -0.000007 -0.000012 0.151836 -0.084359 60.942600 40.985400 -0.000006 -0.000013 0.772193 -4.502000 -27.739100 11.754300 -0.000000 0.000003 -0.006014 -0.070971 -19.465200 -2.192510 6.469440 -0.000001 -172.519000 10.938300 146.212000 -39.081100 -0.002282 -0.040193 -0.197468 0.137727 55.539900 -40.985400 0.000008 0.000006 5.285320 -5.140280 -72.229800 -11.754300 -0.000006 -0.000006 -0.001317 -0.019814 -17.378800
0.000000 0.000000 0.000000 0.000000 0.000000 -0.000000 -114.995000 85.546900 193.247000 53.157800 84.739900 37.482500 15.735700 0.000005 -0.000001 87.402700 82.766600 -84.098700 8.984550 -0.406207 -0.000000 6.714510 -0.683527 6.640940 16.377300 -0.000001 -0.000001 -1.488210 -1.666650 4.013730 6.456720 -0.000001 -0.000000 -6.046560 0.866201 -1.521050 12.994200 -0.242716 4.980390 -90.097700 0.325002 -73.215400 5.348090 -0.000007 -0.000001 -59.187800 41.659300 0.348340 24.328600 0.000019 0.000005 16.322200 5.130720 -73.043900 22.291600 -0.000001 0.000005 -4.959420 5.518710 -7.304420 12.994500 -0.242716 -4.980390 88.865300 6.230180 -79.660500 -5.348130 -0.000001 -0.000004 -60.911400 44.900100 -23.644300 -24.328900 0.000322 -0.000009 -5.406370 0.586455 -96.172100 -22.291500 -0.000108 -0.000004 18.813200 5.640420 -14.144900 -2.192480 -6.469440 -0.000000 -171.403000 2.724840 -8.235030 39.081100 -0.000007 -0.000012 0.014271 -0.004641 71.962900 40.985400 -0.000006 -0.000013 3.160600 -0.299695 -34.331200 11.754300 -0.000000 0.000003 -0.008493 -0.092016 -20.324300 -2.192510 6.469440 -0.000001 -173.139000 10.652900 151.755000 -39.081100 -0.002282 -0.040193 -0.063246 0.052678 51.610300 -40.985400 0.000008 0.000006 6.598320 -4.498050 -73.507100 -11.754300 -0.000006 -0.000006 -0.001182 -0.017954 -17.303300
